<?xml version="1.0" encoding="UTF-8"?>
<!-- Uploaded to: SVG Repo, www.svgrepo.com, Generator: SVG Repo Mixer Tools -->
<svg width="495.98" height="495.95" version="1.1" viewBox="0 0 15.499 15.998" xmlns="http://www.w3.org/2000/svg">
 <g transform="translate(-.00010228 .74958)">
  <path d="m8.9219-0.41016c-0.87236-0.13431-1.7781-0.12145-2.6836 0.058594-3.6218 0.72017-6.238 3.9089-6.2383 7.6016-1.4391e-4 2.0552 0.81639 4.0271 2.2695 5.4805 2.611 2.6113 6.7147 3.0163 9.7852 0.96484 3.0705-2.0514 4.2684-5.9985 2.8555-9.4102-1.0597-2.5588-3.3712-4.2924-5.9883-4.6953zm-0.22266 1.4805c2.1109 0.32292 3.9672 1.7198 4.8242 3.7891 1.1427 2.7591 0.18234 5.9289-2.3008 7.5879-2.4831 1.659-5.781 1.3344-7.8926-0.77734-1.1723-1.1725-1.8302-2.7619-1.8301-4.4199 2.146e-4 -2.9863 2.1023-5.5465 5.0312-6.1289 0.73225-0.1456 1.4643-0.15842 2.168-0.050781z"/>
  <path d="m10.721 4.3867-4.1367 4.1348-1.8027-1.8027a0.75 0.75 0 0 0-1.0625 0 0.75 0.75 0 0 0 0 1.0605l2.334 2.334a0.75008 0.75008 0 0 0 1.0605 0l4.666-4.666a0.75 0.75 0 0 0 2e-3 -1.0605 0.75 0.75 0 0 0-1.0605 0z"/>
 </g>
</svg>
