<svg width="23.835mm" height="23.835mm" version="1.1" viewBox="0 0 23.835 23.835" xmlns="http://www.w3.org/2000/svg">
 <path d="m0.26458 0h23.306c0.14658 0 0.26458 0.118 0.26458 0.26458v23.306c0 0.14658-0.118 0.26458-0.26458 0.26458h-23.306c-0.14658 0-0.26458-0.118-0.26458-0.26458v-23.306c0-0.14658 0.118-0.26458 0.26458-0.26458z" fill="#fff" stop-color="#000000" stroke-linecap="round" stroke-width=".26458"/>
 <g transform="matrix(1.1347 0 0 1.1347 -97.559 -62.153)" stroke-linecap="square">
  <path transform="rotate(-3)" d="m85.746 69.264h13.427v6.0193h-13.427z" fill="#ffd300" stop-color="#000000" stroke-dasharray="0.461589, 2.76953" stroke-width=".46159"/>
  <g transform="scale(.26458)" stop-color="#000000" stroke-dasharray="1.88976, 11.3386" stroke-width="1.8898" style="shape-inside:url(#rect236);white-space:pre" aria-label="f">
   <path d="m358.74 236.92h-4.1836v-6.3281h4.1836v-3.4805q0-3.9375 0.80859-6.3984 0.8086-2.4961 2.2148-3.8672 1.4414-1.4062 3.3398-1.8984 1.9336-0.49219 4.1484-0.49219 0.63281 0 1.4062 0.0703 0.80859 0.0703 1.582 0.2461 0.80859 0.14062 1.5469 0.35156 0.77344 0.21094 1.3711 0.52734v6.2578q-1.4766-0.38672-3.3047-0.38672-0.87891 0-1.6875 0.28125-0.77344 0.28125-1.3711 0.94922-0.59766 0.63281-0.94922 1.7226-0.35157 1.0547-0.35157 2.6367v3.4805h6.7148v6.3281h-6.7148v42.082h-8.7539z" fill="#333"/>
  </g>
 </g>
</svg>
