<?xml version="1.0" encoding="UTF-8" standalone="no"?>
<svg
   width="23.835mm"
   height="23.835mm"
   version="1.1"
   viewBox="0 0 23.835 23.835"
   id="svg10"
   sodipodi:docname="logo.svg"
   inkscape:version="1.2.2 (b0a8486541, 2022-12-01)"
   xmlns:inkscape="http://www.inkscape.org/namespaces/inkscape"
   xmlns:sodipodi="http://sodipodi.sourceforge.net/DTD/sodipodi-0.dtd"
   xmlns="http://www.w3.org/2000/svg"
   xmlns:svg="http://www.w3.org/2000/svg">
  <defs
     id="defs14" />
  <sodipodi:namedview
     id="namedview12"
     pagecolor="#ffffff"
     bordercolor="#000000"
     borderopacity="0.25"
     inkscape:showpageshadow="2"
     inkscape:pageopacity="0.0"
     inkscape:pagecheckerboard="0"
     inkscape:deskcolor="#d1d1d1"
     inkscape:document-units="mm"
     showgrid="false"
     inkscape:zoom="2.9169015"
     inkscape:cx="83.478993"
     inkscape:cy="43.025107"
     inkscape:window-width="1886"
     inkscape:window-height="992"
     inkscape:window-x="0"
     inkscape:window-y="0"
     inkscape:window-maximized="1"
     inkscape:current-layer="svg10" />
  <g
     transform="matrix(1.1346524,0,0,1.1346524,-97.559154,-62.153034)"
     stroke-linecap="square"
     id="g8">
    <path
       transform="rotate(-3)"
       d="m 85.746,69.264 h 13.427 v 6.0193 H 85.746 Z"
       fill="#ffd300"
       stop-color="#000000"
       stroke-dasharray="0.461589, 2.76953"
       stroke-width="0.46159"
       id="path2" />
    <g
       transform="scale(0.26458)"
       stop-color="#000000"
       stroke-dasharray="1.88976, 11.3386"
       stroke-width="1.8898"
       style="white-space:pre;shape-inside:url(#rect236)"
       aria-label="f"
       id="g6">
      <path
         d="m 358.74,236.92 h -4.1836 v -6.3281 h 4.1836 v -3.4805 q 0,-3.9375 0.80859,-6.3984 0.8086,-2.4961 2.2148,-3.8672 1.4414,-1.4062 3.3398,-1.8984 1.9336,-0.49219 4.1484,-0.49219 0.63281,0 1.4062,0.0703 0.80859,0.0703 1.582,0.2461 0.80859,0.14062 1.5469,0.35156 0.77344,0.21094 1.3711,0.52734 v 6.2578 q -1.4766,-0.38672 -3.3047,-0.38672 -0.87891,0 -1.6875,0.28125 -0.77344,0.28125 -1.3711,0.94922 -0.59766,0.63281 -0.94922,1.7226 -0.35157,1.0547 -0.35157,2.6367 v 3.4805 h 6.7148 v 6.3281 h -6.7148 v 42.082 h -8.7539 z"
         fill="#333333"
         id="path4" />
    </g>
  </g>
</svg>
