<svg width="100" height="100" version="1.1" viewBox="0 0 26.458 26.458" xmlns="http://www.w3.org/2000/svg">
 <path d="m9.6715 3.6021c-1.1153-1.2e-6 -2.0195 0.90417-2.0195 2.0195-1e-6 1.1153 0.90417 2.0195 2.0195 2.0195 1.1153 6e-7 2.0195-0.90417 2.0195-2.0195 1e-6 -1.1153-0.90417-2.0195-2.0195-2.0195zm8.1731 0c-1.1153-1.2e-6 -2.0195 0.90417-2.0195 2.0195-1e-6 1.1153 0.90417 2.0195 2.0195 2.0195 1.1153 1.2e-6 2.0195-0.90417 2.0195-2.0195 1e-6 -1.1153-0.90417-2.0195-2.0195-2.0195zm-4.0866 2.5699c-0.33829 0-0.67606 0.026707-1.0103 0.079065v2.1234c-0.09306 0.021742-0.18552 0.046199-0.27698 0.073897h0.04909a4.43 4.43 0 0 0-0.10025 0.029456l0.05116-0.029456c-0.65344 0.19788-1.2527 0.54386-1.7508 1.0108l0.05168-0.029972a4.43 4.43 0 0 0-0.07648 0.072864l0.02481-0.042891c-0.06963 0.06527-0.13677 0.13295-0.20206 0.20257l-1.8397-1.0614c-0.42552 0.52727-0.76637 1.1176-1.0103 1.7498l1.8386 1.062c-0.027709 0.09146-0.052157 0.18393-0.073897 0.27698l0.024805-0.04341a4.43 4.43 0 0 0-0.024805 0.10387v-0.06046c-0.07745 0.33137-0.11678 0.6705-0.11679 1.0108 1.3e-5 0.3403 0.039341 0.67942 0.11679 1.0108v-0.06046a4.43 4.43 0 0 0 0.024805 0.10387l-0.024805-0.04341c0.02175 0.09306 0.046198 0.18552 0.073897 0.27699l-1.8386 1.062c0.2439 0.63214 0.58476 1.2225 1.0103 1.7498l1.8397-1.0609c0.06528 0.06963 0.13242 0.13678 0.20206 0.20206l-0.02481-0.04289a4.43 4.43 0 0 0 0.07648 0.07286l-0.05168-0.02997c0.49811 0.46693 1.0974 0.81291 1.7508 1.0108l-0.05116-0.02946a4.43 4.43 0 0 0 0.10025 0.02946h-0.04909c0.09147 0.0277 0.18392 0.05266 0.27698 0.07441v2.1234c0.33421 0.05236 0.67198 0.07855 1.0103 0.07855 0.33815 0 0.67568-0.02624 1.0098-0.07855l1e-3 -2.1234c0.09316-0.02176 0.18542-0.04668 0.27698-0.07441h-0.04289a4.43 4.43 0 0 0 0.09043-0.02739l-0.04754 0.02739c0.65339-0.19786 1.2522-0.54392 1.7503-1.0108l-0.04547 0.02635a4.43 4.43 0 0 0 0.06615-0.06201l-0.02067 0.03566c0.06975-0.06538 0.1377-0.13282 0.20309-0.20257l1.8386 1.0614c0.42551-0.52727 0.76638-1.1176 1.0103-1.7498l-1.8381-1.062c0.02771-0.09147 0.05215-0.18392 0.0739-0.27699l-0.0217 0.03772a4.43 4.43 0 0 0 0.0217-0.09353v0.05581c0.07746-0.33138 0.11677-0.67047 0.11679-1.0108-1.4e-5 -0.34032-0.03934-0.6794-0.11679-1.0108v0.05581a4.43 4.43 0 0 0-0.0217-0.09353l0.0217 0.03772c-0.02175-0.09306-0.04619-0.18552-0.0739-0.27698l1.8381-1.062c-0.24379-0.6319-0.58441-1.2221-1.0097-1.7492l-1.8392 1.0609c-0.06539-0.06975-0.13334-0.13719-0.20309-0.20257l0.02067 0.035657a4.43 4.43 0 0 0-0.06615-0.062012l0.04547 0.026355c-0.49807-0.46688-1.0969-0.81293-1.7503-1.0108l0.04754 0.027389a4.43 4.43 0 0 0-0.09043-0.027389h0.04289c-0.09156-0.027728-0.18382-0.052138-0.27698-0.073897l-1e-3 -2.1239c-0.33398-0.052281-0.67172-0.078548-1.0098-0.078548zm0 4.3057a2.222 2.222 0 0 1 2.2221 2.2221 2.222 2.222 0 0 1-2.2221 2.2221 2.222 2.222 0 0 1-2.2221-2.2221 2.222 2.222 0 0 1 2.2221-2.2221zm-8.1731 0.20257c-1.1153-1e-6 -2.0195 0.90417-2.0195 2.0195-1e-6 1.1153 0.90417 2.0195 2.0195 2.0195 1.1153 1e-6 2.0195-0.90417 2.0195-2.0195 1e-6 -1.1153-0.90417-2.0195-2.0195-2.0195zm16.346 0c-1.1153-1e-6 -2.0195 0.90417-2.0195 2.0195-1e-6 1.1153 0.90417 2.0195 2.0195 2.0195 1.1153 1e-6 2.0195-0.90417 2.0195-2.0195 1e-6 -1.1153-0.90417-2.0195-2.0195-2.0195zm-12.26 7.0781c-1.1153-1e-6 -2.0195 0.90417-2.0195 2.0195-1e-6 1.1153 0.90417 2.0195 2.0195 2.0195 1.1153 1e-6 2.0195-0.90417 2.0195-2.0195 1e-6 -1.1153-0.90417-2.0195-2.0195-2.0195zm8.1731 0c-1.1153-1e-6 -2.0195 0.90417-2.0195 2.0195-1e-6 1.1153 0.90417 2.0195 2.0195 2.0195 1.1153 1e-6 2.0195-0.90417 2.0195-2.0195 1e-6 -1.1153-0.90417-2.0195-2.0195-2.0195z" fill="#ffe300" stop-color="#000000"/>
 <g fill="none" stroke="#000" stroke-linecap="round" stroke-width=".26458">
  <path d="m5.4813 15.691c0.35671 1.1189 0.95154 2.1472 1.7436 3.0143m4.2628 2.4644c0.57192 0.12626 1.1558 0.19037 1.7415 0.1912 0.58596-7.9e-5 1.1702-0.06349 1.7425-0.18914m4.2659-2.4639c0.79049-0.86831 1.3836-1.8975 1.7384-3.0169m0-4.9237c-0.35502-1.1198-0.94844-2.1494-1.7394-3.0179m-4.2654-2.4624c-0.57214-0.12578-1.1562-0.18937-1.742-0.18965-0.58533 7.368e-4 -1.1689 0.064669-1.7405 0.19069m-4.2654 2.4629c-0.79086 0.86772-1.3844 1.8964-1.7399 3.0153" stop-color="#000000"/>
  <path d="m11.942 8.9778c-0.65344 0.19788-1.2525 0.54372-1.7506 1.0107-0.06963 0.06527-0.13714 0.13277-0.20242 0.2024l-1.8394-1.0611c-0.42552 0.52727-0.76635 1.1176-1.0103 1.7497l1.8387 1.062c-0.027707 0.09146-0.052455 0.1838-0.074205 0.27686-0.077449 0.33137-0.11656 0.67054-0.11658 1.0108 1.36e-5 0.3403 0.039129 0.67946 0.11658 1.0108 0.02175 0.09306 0.046498 0.18539 0.074205 0.27686l-1.8387 1.062c0.2439 0.63214 0.58473 1.2224 1.0103 1.7497l1.8394-1.0611c0.06528 0.06963 0.13279 0.13712 0.20242 0.2024 0.49811 0.46694 1.0971 0.81277 1.7506 1.0106 0.09147 0.0277 0.1838 0.05243 0.27686 0.07418l2.12e-4 2.1234c0.33421 0.05236 0.67199 0.07866 1.0103 0.07866 0.33815 0 0.67579-0.02628 1.0099-0.07859l6.38e-4 -2.1234c0.09316-0.02176 0.1856-0.04652 0.27716-0.07425 0.65339-0.19786 1.2524-0.54366 1.7505-1.0105 0.06975-0.06538 0.13738-0.133 0.20277-0.20275l1.8389 1.0614c0.42551-0.52727 0.76634-1.1176 1.0102-1.7497l-1.8384-1.062c0.02771-0.09147 0.05246-0.18381 0.07421-0.27687 0.07746-0.33139 0.11658-0.67057 0.11659-1.0109-1.4e-5 -0.34032-0.03914-0.67951-0.11659-1.0109-0.02175-0.09306-0.0465-0.1854-0.07421-0.27687l1.8383-1.0621c-0.24383-0.6319-0.58451-1.222-1.0098-1.7491l-1.8392 1.0609c-0.06539-0.06975-0.13302-0.13737-0.20277-0.20275-0.49808-0.46688-1.0971-0.81267-1.7505-1.0105-0.09156-0.027728-0.184-0.052491-0.27716-0.07425l-9.7e-4 -2.1234c-0.33398-0.052281-0.67151-0.07854-1.0096-0.07854-0.33829 0-0.67607 0.026297-1.0103 0.078655l-2.12e-4 2.1234c-0.09306 0.021742-0.1854 0.046482-0.27686 0.07418m1.5418 1.7886c0.26144 0.02703 0.5169 0.09551 0.7568 0.20288 0.15494 0.06934 0.30234 0.15444 0.43988 0.25394 0.2132 0.15424 0.40044 0.34149 0.55469 0.55469 0.0995 0.13753 0.1846 0.28494 0.25394 0.43988 0.10742 0.24003 0.17592 0.49564 0.20292 0.75722 0.0087 0.08443 0.01309 0.16925 0.01309 0.25413-4e-6 0.08488-0.0044 0.1697-0.01309 0.25413-0.027 0.26158-0.0955 0.51719-0.20292 0.75722-0.06934 0.15494-0.15444 0.30234-0.25394 0.43988-0.15424 0.2132-0.34149 0.40044-0.55469 0.55469-0.13753 0.0995-0.28494 0.1846-0.43988 0.25394-0.2399 0.10737-0.49537 0.17585-0.7568 0.20288-0.08457 0.0087-0.16953 0.01313-0.25454 0.01313-0.08488-3e-6 -0.1697-0.0044-0.25413-0.01309-0.26139-0.02698-0.51682-0.0954-0.75671-0.2027-0.15513-0.06939-0.3027-0.15456-0.44039-0.25417-0.21304-0.15413-0.40016-0.34121-0.55435-0.55422-0.09965-0.13767-0.18486-0.28523-0.25428-0.44035-0.10742-0.24003-0.17592-0.49564-0.20292-0.75722-0.0087-0.08443-0.01309-0.16925-0.01309-0.25413 3e-6 -0.08488 0.0044-0.1697 0.01309-0.25413 0.02701-0.26158 0.0955-0.51719 0.20292-0.75722 0.06942-0.15512 0.15464-0.30268 0.25428-0.44035 0.15418-0.213 0.34131-0.40009 0.55435-0.55422 0.13768-0.09961 0.28526-0.18479 0.44039-0.25417 0.23988-0.10729 0.49531-0.17572 0.75671-0.2027 0.08443-0.0087 0.16925-0.01309 0.25413-0.01309 0.08502 3e-6 0.16998 0.0044 0.25454 0.01313" stop-color="#000000"/>
  <circle cx="9.1425" cy="6.1508" r="2.0195" stop-color="#000000"/>
  <circle cx="17.316" cy="6.1508" r="2.0195" stop-color="#000000"/>
  <circle cx="21.403" cy="13.229" r="2.0195" stop-color="#000000"/>
  <circle cx="17.316" cy="20.308" r="2.0195" stop-color="#000000"/>
  <circle cx="9.1425" cy="20.308" r="2.0195" stop-color="#000000"/>
  <circle cx="5.0558" cy="13.229" r="2.0195" stop-color="#000000"/>
 </g>
</svg>
