<svg width="100" height="100" version="1.1" viewBox="0 0 100 100" xml:space="preserve" xmlns="http://www.w3.org/2000/svg"><script/>
	<g transform="matrix(.10285 0 0 .10285 -.56024 1.1378)" stroke-width="9.7229">
	<path d="m546.83 132.34c-34.765 0.22369-77.186 24.615-108.81 66.158-25.864 33.976-38.755 71.885-37.668 102.93-23.004-20.909-60.278-35.555-102.93-37.732-72.5-3.7-133.3 29.999-135.6 75.299l50.201 2.6016 10.898-36.4 7.3008 37.4 53.699 2.6992 11.102-36.5 7.2988 37.4 18.625 0.93555c-16.611 7.9794-33.239 19.204-48.625 33.465-53.3 49.4-71.599 116.3-40.799 149.6l36.898-34.201-18.398-33.398 31.898 20.898 39.4-36.5-18.4-33.398 31.9 20.898 39.4-36.5-18.4-33.398 31.9 20.898 35.516-32.916c0.13182 0.10206 0.25179 0.21548 0.38477 0.31641l0.14062-0.1836c-9e-3 0.12917-0.0327 0.2554-0.041 0.38477l50.301 3.0996 11.6-36.301 6.7988 37.5 53.602 3.4004 11.5-36.301 6.7988 37.5 31.516 2 6.6856 8.8008 22.898-9.9004-15.6 19.5 21.301 28 22.9-9.9004-15.602 19.5 21.178 27.838c-16.212-8.8342-38.239-13.549-62.178-12.037-47.4 3-84.4 29.5-82.5 59.1l19.961-1.2773c23.593 67.987 29.767 125.78 31.305 150.82 2.4515-0.0552 4.8625-0.24219 7.3301-0.24219 2.2958 0 4.5384 0.17681 6.8203 0.22461 3.8789-15.765 8.8205-32.779 15.279-50.625 12.321-34.044 33.046-65.275 52.703-89.877-4.8681-5.7814-10.058-11.33-15.643-16.543l9.2441-0.58008 4.5-24.6 7.6016 23.799 32.799-2.0996c-0.01-0.10707-0.025-0.21149-0.033-0.31836l0.041-2e-3 0.092 0.12109c0.056-0.0428 0.1063-0.0917 0.1621-0.13477l1.8262-0.0937c-0.9072 0.33841-1.8043 0.71037-2.6875 1.1289l14.1 29.699 24.5-5-19.299 15.801 15.1 31.799 24.5-5-19.301 15.801 15.1 31.799 24.5-5-19.398 16.102 14.1 29.699c26.8-12.8 32-57.9 11.6-100.9-14.635-30.848-38.481-52.171-60.686-57.072l8.2852-0.42773 4.8008-24.5 7.1992 23.9 35.1-1.8008 4.8008-24.5 7.1992 23.9 35.102-1.7988 4.7988-24.5 7.3008 23.898 32.9-1.6992c-1.6-29.7-41.301-51.701-88.801-49.301-28.051 1.4764-52.538 11.153-67.584 24.922 0.8649-20.419-7.5589-45.434-24.615-67.82-3.9011-5.1337-8.0601-9.8531-12.383-14.156l21.281 1.3555c2.9-45.3-53.6-85.701-126.1-90.301-36.454-2.3129-70.043 4.8605-94.809 18.318l32.309-42.318-23.9-29.699 35 15.1 32.601-42.699-23.9-29.701 35 15.102 30.4-40c-10.153-7.7344-22.586-11.347-36.189-11.26zm-116.61 150.76 34.783 15.006c-5.4136 2.9758-10.393 6.2558-14.887 9.8027zm-63.1 29.299 4.043 20.719c-3.5056 0.21697-7.0826 0.62748-10.713 1.2148zm262.3 16.701 2.957 16.305c-2.419-1.073-4.8331-2.0213-7.2285-2.8203zm-120.72 107.21c5.4222 9.4177 10.579 19.118 15.146 29.162 6.8423-8.8528 17.269-16.554 30.076-22.289-14.746-4.1015-29.927-6.4151-45.223-6.873zm173.92 1.7949-13.033 16.293c-2.9491-2.3287-6.2189-4.4811-9.7754-6.4336zm-224.73 3.5371c-83.143 20.26-144.88 95.183-144.88 184.56 0.15653 41.738 14.079 82.227 39.535 115.26 34.618-42.092 86.126-73.8 146.47-88.342 2.4976-15.728 8.3466-74.312-23.406-166.51-5.3933-15.729-11.435-30.712-17.721-44.963zm210.94 91.873c-9.0877 18.192-18.055 38.41-25.615 60.289-7.0236 20.443-11.757 38.824-15.014 55.223 21.066 3.6436 41.169 9.4245 60.107 16.91 2.9455-13.044 4.5627-26.355 4.7109-39.732-0.011-32.781-8.4993-64.639-24.189-92.689zm-95.309 113.69c-115.9 0-214.5 61.3-251.7 147h503.5c-37.2-85.7-135.9-147-251.8-147z" fill="#ffe300" stop-color="#000000"/>
	<g fill="none" stroke="#000">
	<path class="st1" d="m516.81 149.14c-34.765 0.2237-77.188 24.617-108.81 66.16-25.865 33.977-38.754 71.884-37.666 102.93-23.004-20.91-60.277-35.557-102.93-37.734-72.5-3.7-133.3 30.001-135.6 75.301l50.199 2.5996 10.9-36.4 7.2988 37.4 53.701 2.6992 11.1-36.5 7.3008 37.4 18.627 0.93555c-16.612 7.9795-33.24 19.204-48.627 33.465-53.3 49.4-71.601 116.3-40.801 149.6l36.9-34.199-18.4-33.4 31.9 20.9 39.4-36.5-18.4-33.4 31.9 20.9 39.398-36.5-18.398-33.4 31.898 20.9 26.127-24.217c19.153 30.866 43.854 76.057 61.773 128.32 31.753 92.202 25.904 150.79 23.406 166.51-82.306 19.836-148.31 71.525-177.21 138.09h503.5c-31.177-71.824-105.62-126.35-197.12-142.18 3.2566-16.398 7.99-34.78 15.014-55.223 13.951-40.373 32.699-75.791 48.139-101.38l8.9629 18.875 24.5-5-19.301 15.801 15.1 31.799 24.5-5-19.299 15.801 15.1 31.801 24.5-5-19.4 16.1 14.1 29.699c26.8-12.8 32-57.901 11.6-100.9-14.635-30.848-38.481-52.171-60.686-57.072l8.2871-0.42773 4.7988-24.5 7.2012 23.9 35.1-1.7988 4.7988-24.5 7.2012 23.898 35.1-1.7988 4.8008-24.5 7.2988 23.9 32.9-1.7012c-1.6-29.7-41.301-51.699-88.801-49.299-28.051 1.4764-52.536 11.151-67.582 24.92 0.86489-20.419-7.5608-45.434-24.617-67.82-3.9011-5.1337-8.06-9.8531-12.383-14.156l21.283 1.3555c2.9-45.3-53.6-85.699-126.1-90.299-36.455-2.313-70.045 4.8598-94.811 18.318l32.311-42.318-23.9-29.701 35 15.1 32.6-42.699-23.9-29.699 35 15.1 30.4-40c-10.153-7.7344-22.584-11.347-36.188-11.26zm-116.61 150.76 34.783 15.006c-5.4132 2.9756-10.391 6.256-14.885 9.8027zm-63.1 29.299 4.0449 20.719c-3.5067 0.21696-7.0833 0.6292-10.715 1.2168zm118.5 7.5 6.8008 37.5 53.6 3.4004 11.5-36.299 6.8008 37.5 31.514 1.998 6.6856 8.8008 22.9-9.9004-15.6 19.5 21.299 28 22.9-9.8984-15.6 19.5 21.176 27.838c-16.212-8.8341-38.237-13.551-62.176-12.039-32.453 2.054-60.017 15.129-73.572 32.668-21.063-46.314-53.198-86.77-78.066-114.01l28.238 1.7402zm143.8 9.2012 2.957 16.307c-2.4197-1.0733-4.8324-2.023-7.2285-2.8223zm53.199 109-13.033 16.291c-2.9486-2.3281-6.2196-4.4776-9.7754-6.4297zm-36.199 24.1 7.5996 23.801 12.781-0.81836c-23.791 26.328-54.862 66.525-71.182 111.62-6.4588 17.846-11.4 34.86-15.279 50.625-2.282-0.0478-4.5245-0.22461-6.8203-0.22461-2.4676 0-4.8786 0.18697-7.3301 0.24219-1.5602-25.41-7.8059-84.477-32.268-153.76l13.797-0.88281 4.5-24.6 7.5 23.801 35.102-2.2012 4.5-24.6 7.5 23.801 35.1-2.2012z" stroke-width="9.7229"/>
	</g></g>
</svg>
