<svg width="100" height="100" version="1.1" viewBox="0 0 26.458 26.458" xmlns="http://www.w3.org/2000/svg">
 <path d="m11.472 2.4474c-0.14658 0-0.26458 0.118-0.26458 0.26458v1.8521h-2.3813c-0.14658 0-0.26458 0.118-0.26458 0.26458v2.3812h-2.3812c-0.14658 0-0.26458 0.118-0.26458 0.26458v2.3813h7.0895c0.0092 0 0.01847 6.5e-4 0.02739 0.0015-0.0089-9e-4 -0.01823-1e-3 -0.02739-1e-3h-9.4707c-0.14658 0-0.26458 0.118-0.26458 0.26458v12.471c0 0.14658 0.118 0.26458 0.26458 0.26458h9.4707c0.14658 0 0.26458-0.118 0.26458-0.26458v-2.3812h2.3812c0.14658 0 0.26458-0.118 0.26458-0.26458v-2.3812h2.3812c0.14658 0 0.26458-0.118 0.26458-0.26458v-1.8521h2.3812c0.14658 0 0.26458-0.118 0.26458-0.26458v-12.471c0-0.14658-0.118-0.26458-0.26458-0.26458zm1.6123 7.4202c0.01659 0.0051 0.03254 0.01203 0.04754 0.02015-0.015-0.0081-0.03095-0.01501-0.04754-0.02015z" fill="#ffe300" stop-color="#000000"/>
 <g fill="none" stroke="#000" stroke-linecap="round" stroke-width=".26458">
  <rect x="2.7409" y="10.385" width="10" height="13" ry=".26458" stop-color="#000000"/>
  <path d="m5.6513 7.7391c-0.14658 0-0.26458 0.118-0.26458 0.26458v2.3813h7.0895c0.14658 0 0.26458 0.118 0.26458 0.26458v10.09h2.3812c0.14658 0 0.26458-0.118 0.26458-0.26458v-12.471c0-0.14658-0.118-0.26458-0.26458-0.26458z" stop-color="#000000"/>
  <path d="m8.2972 5.0932c-0.14658 0-0.26458 0.118-0.26458 0.26458v2.3812h7.0895c0.14658 0 0.26458 0.118 0.26458 0.26458v10.09h2.3812c0.14658 0 0.26458-0.118 0.26458-0.26458v-12.471c0-0.14658-0.118-0.26458-0.26458-0.26458z" stop-color="#000000"/>
  <path d="m10.943 2.9766c-0.14658 0-0.26458 0.118-0.26458 0.26458v1.8521h7.0895c0.14658 0 0.26458 0.118 0.26458 0.26458v10.619h2.3812c0.14658 0 0.26458-0.118 0.26458-0.26458v-12.471c0-0.14658-0.118-0.26458-0.26458-0.26458z" stop-color="#000000"/>
  <path d="m14.975 23.875c1.3997-0.19318 2.8808-0.28918 2.4836-2.6284 2.728-0.42037 2.2717-1.556 2.4504-2.549 2.9802-0.58383 2.4848-1.5414 2.3419-2.3419" stop-color="#000000"/>
  <path d="m14.975 23.875 0.83777-0.64836" stop-color="#000000"/>
  <path d="m14.975 23.875 0.92255 0.42125" stop-color="#000000"/>
 </g>
</svg>
