<svg width="100" height="100" version="1.1" viewBox="0 0 26.458 26.458" xmlns="http://www.w3.org/2000/svg">
 <path d="m14.288 20.902a0.52917 0.52917 0 0 1-0.52917 0.52917 0.52917 0.52917 0 0 1-0.52917-0.52917 0.52917 0.52917 0 0 1 0.52917-0.52917 0.52917 0.52917 0 0 1 0.52917 0.52917zm-3.9688-2.9104a0.52917 0.52917 0 0 1-0.52917 0.52917 0.52917 0.52917 0 0 1-0.52917-0.52917 0.52917 0.52917 0 0 1 0.52917-0.52917 0.52917 0.52917 0 0 1 0.52917 0.52917zm0-3.175a0.52917 0.52917 0 0 1-0.52917 0.52917 0.52917 0.52917 0 0 1-0.52917-0.52917 0.52917 0.52917 0 0 1 0.52917-0.52917 0.52917 0.52917 0 0 1 0.52917 0.52917zm0-3.175a0.52917 0.52917 0 0 1-0.52917 0.52917 0.52917 0.52917 0 0 1-0.52917-0.52917 0.52917 0.52917 0 0 1 0.52917-0.52917 0.52917 0.52917 0 0 1 0.52917 0.52917zm0.92604-7.5406c-2.8268 2e-3 -5.1529 2.2255-5.2824 5.0493-0.30124-0.10228-0.61721-0.15447-0.93534-0.15451-1.6074 0-2.9104 2.0968-2.9104 3.7042 3e-7 1.6074 1.303 3.4396 2.9104 3.4396h3.7042c-0.14658 0-0.26458-0.118-0.26458-0.26458v-2.1167c0-0.14658 0.118-0.26458 0.26458-0.26458h10.054c0.14658 0 0.26458 0.118 0.26458 0.26458v2.1167c0 0.14658-0.118 0.26458-0.26458 0.26458h3.7042c1.6074 0 2.9104-1.8322 2.9104-3.4396 0-1.6074-1.303-3.7042-2.9104-3.7042-0.41532 6.3e-4 -0.82569 0.090139-1.2035 0.26252-0.59826-1.5155-2.062-2.5114-3.6912-2.5115-0.54731 9.921e-4 -1.0885 0.11518-1.5896 0.33538-0.88494-1.8234-2.7336-2.9811-4.7604-2.9812zm-2.5135 6.2177h10.054c0.14658 0 0.26458 0.118 0.26458 0.26458v2.1167c0 0.14658-0.118 0.26458-0.26458 0.26458h-10.054c-0.14658 0-0.26458-0.118-0.26458-0.26458v-2.1167c0-0.14658 0.118-0.26458 0.26458-0.26458zm6.6146 1.3229h1.0583zm1.5875 0h1.0583zm-1.5875 3.175h1.0583zm1.5875 0h1.0583z" fill="#ffe300" stop-color="#000000"/>
 <path d="m13.758 21.431h3.4396m-3.9688-1.0583v0.52917m-0.52917 0.52917h-3.4396m6.6146-2.9104-1.0583 1e-6m2.6458-1e-6h-1.0583m-0.52917-3.175h-1.0583m2.6458 0h-1.0583m-0.52917-3.175h-1.0583m2.6458 0h-1.0583m-2.6458 9.2604a0.52917 0.52917 0 0 1-0.52917 0.52917 0.52917 0.52917 0 0 1-0.52917-0.52917 0.52917 0.52917 0 0 1 0.52917-0.52917 0.52917 0.52917 0 0 1 0.52917 0.52917zm-3.9688-2.9104a0.52917 0.52917 0 0 1-0.52917 0.52917 0.52917 0.52917 0 0 1-0.52917-0.52917 0.52917 0.52917 0 0 1 0.52917-0.52917 0.52917 0.52917 0 0 1 0.52917 0.52917zm0-3.175a0.52917 0.52917 0 0 1-0.52917 0.52917 0.52917 0.52917 0 0 1-0.52917-0.52917 0.52917 0.52917 0 0 1 0.52917-0.52917 0.52917 0.52917 0 0 1 0.52917 0.52917zm0-3.175a0.52917 0.52917 0 0 1-0.52917 0.52917 0.52917 0.52917 0 0 1-0.52917-0.52917 0.52917 0.52917 0 0 1 0.52917-0.52917 0.52917 0.52917 0 0 1 0.52917 0.52917zm-1.5875 5.0271h10.054c0.14658 0 0.26458 0.118 0.26458 0.26458v2.1167c0 0.14658-0.118 0.26458-0.26458 0.26458h-10.054c-0.14658 0-0.26458-0.118-0.26458-0.26458v-2.1167c0-0.14658 0.118-0.26458 0.26458-0.26458zm0-3.175h10.054c0.14658 0 0.26458 0.118 0.26458 0.26458v2.1167c0 0.14658-0.118 0.26458-0.26458 0.26458h-10.054c-0.14658 0-0.26458-0.118-0.26458-0.26458v-2.1167c0-0.14658 0.118-0.26458 0.26458-0.26458zm0-3.175h10.054c0.14658 0 0.26458 0.118 0.26458 0.26458v2.1167c0 0.14658-0.118 0.26458-0.26458 0.26458h-10.054c-0.14658 0-0.26458-0.118-0.26458-0.26458v-2.1167c0-0.14658 0.118-0.26458 0.26458-0.26458z" fill="none" stop-color="#000000" stroke="#000" stroke-linecap="round" stroke-width=".26458"/>
 <path d="m21.96 16.669c1.6074 0 2.9104-1.8322 2.9104-3.4396 0-1.6074-1.303-3.7042-2.9104-3.7042-0.41532 6.301e-4 -0.82569 0.09014-1.2035 0.26252-0.59826-1.5155-2.062-2.5114-3.6912-2.5115-0.54731 9.921e-4 -1.0885 0.11518-1.5896 0.33538-0.88494-1.8234-2.7336-2.9811-4.7604-2.9812-2.8268 0.0020027-5.1529 2.2255-5.2824 5.0493-0.30124-0.10228-0.61721-0.15447-0.93534-0.15451-1.6074 1e-7 -2.9104 2.0968-2.9104 3.7042 3e-7 1.6074 1.303 3.4396 2.9104 3.4396m14.552 0h2.9104m-14.552 0h-2.9104" fill="none" stop-color="#000000" stroke="#000" stroke-linecap="round" stroke-width=".26458"/>
</svg>
